# xmcd CD database file
#
# Track frame offsets:
#	150
#	19744
#	42846
#	61695
#	79870
#	118579
#	145183
#	156315
#	178152
#	189779
#	205851
#	235941
#	291487
#
# Disc length: 4074 seconds
#
# Revision: 0
# Processed by: cddbd v1.5.1PL0 Copyright (c) Steve Scherf et al.
# Submitted via: CDex 1.51
#
DISCID=b20fe80d
DTITLE=Various Artist - Kandera - Mystique
DYEAR=1999
DGENRE=New Age
TTITLE0=Harry Schärer - Space Dream Ouverture
TTITLE1=Basil Poledouris - Hymn to Red October
TTITLE2=Enya - Cursum Perficio
TTITLE3=Adiemus - Adiemus
TTITLE4=Oliver Shanti&Friends - Well Balanced
TTITLE5=Cirque du Soleil - Alegria
TTITLE6=Enya - Watermark
TTITLE7=Back to Earth - Behind the Mask
TTITLE8=Klaus Doldinger - Erinnerung
TTITLE9=Vangelis - Chariots of Fire
TTITLE10=Oliver Serano - Simply Love
TTITLE11=Mike Oldfield - Mont St. Michel
TTITLE12=Cirque du Soleil - Rideau
EXTD=YEAR: 1999
EXTT0=
EXTT1=
EXTT2=
EXTT3=
EXTT4=
EXTT5=
EXTT6=
EXTT7=
EXTT8=
EXTT9=
EXTT10=
EXTT11=
EXTT12=
PLAYORDER=
